<svg xmlns="http://www.w3.org/2000/svg" viewBox="0 0 8.467 8.467" id="LocationPointer"><path d="M4.232.794c-.386 0-.759.119-1.034.382-.276.264-.436.662-.436 1.15 0 .555.33 1.162.64 1.676.311.515.622.917.622.917a.265.264 0 0 0 .42 0s.31-.402.62-.917c.31-.514.64-1.12.64-1.676 0-.488-.16-.886-.435-1.15C4.994.913 4.62.794 4.232.794Zm.001 1.047a.376.366 0 0 1 .376.367.376.366 0 0 1-.376.367.376.366 0 0 1-.376-.367.376.366 0 0 1 .376-.367ZM2.096 3.38a.265.264 0 0 0-.166.053C1.218 3.949.794 4.7.794 5.497c0 .829.46 1.605 1.222 2.123a.265.264 0 1 0 .297-.437c-.642-.436-.99-1.051-.99-1.686 0-.61.322-1.202.92-1.636a.265.264 0 0 0-.147-.482Zm4.265.025a.265.264 0 0 0-.137.48c.598.435.92 1.026.92 1.636 0 .624-.336 1.229-.959 1.664a.265.264 0 1 0 .303.434c.74-.518 1.185-1.283 1.185-2.098 0-.796-.427-1.545-1.139-2.062a.265.264 0 0 0-.173-.054Zm-3.513.73a.265.264 0 0 0-.142.041c-.519.311-.854.791-.854 1.322 0 .564.377 1.067.95 1.376a.265.264 0 1 0 .25-.465c-.449-.243-.67-.583-.67-.911 0-.31.193-.628.595-.869a.265.264 0 0 0-.129-.494Zm2.761.026a.265.264 0 0 0-.121.492c.402.241.597.56.597.868 0 .32-.21.652-.638.894a.265.264 0 1 0 .262.459c.548-.31.905-.803.905-1.353 0-.53-.334-1.01-.853-1.321a.265.264 0 0 0-.152-.04Zm-2.193.55a.265.264 0 0 0-.096.02 1.304 1.304 0 0 0-.466.293.688.688 0 0 0-.207.474c0 .201.104.38.246.51.142.131.325.226.54.296a.265.264 0 1 0 .165-.502.977.977 0 0 1-.348-.184c-.066-.06-.074-.098-.074-.12 0-.02.005-.053.057-.106a.826.826 0 0 1 .28-.168.265.264 0 0 0-.097-.513Zm1.627.023a.265.264 0 0 0-.09.514.813.813 0 0 1 .279.167c.052.053.059.086.059.106 0 .022-.007.058-.067.115a.913.913 0 0 1-.318.176.265.265 0 0 0 .176.5c.202-.072.376-.167.51-.295a.698.698 0 0 0 .228-.496.69.69 0 0 0-.207-.474 1.3 1.3 0 0 0-.467-.29.265.264 0 0 0-.103-.023Z" color="#000" font-family="sans-serif" font-weight="400" overflow="visible" paint-order="fill markers stroke" style="line-height:normal;font-variant-ligatures:normal;font-variant-position:normal;font-variant-caps:normal;font-variant-numeric:normal;font-variant-alternates:normal;font-feature-settings:normal;text-indent:0;text-align:start;text-decoration-line:none;text-decoration-style:solid;text-decoration-color:#000;text-transform:none;text-orientation:mixed;shape-padding:0;isolation:auto;mix-blend-mode:normal" fill="#34a853" class="color000000 svgShape"></path></svg>